<svg xmlns="http://www.w3.org/2000/svg">

  <g xmlns="http://www.w3.org/2000/svg" xmlns:xlink="http://www.w3.org/1999/xlink">
    <g transform="matrix(.1 0 0 .1 1000 0)" fill="none">
      <line x1="90" y1="52.9999" x2="90" y2="88.9999" stroke="black" stroke-width="4" stroke-linecap="round" />
      <path d="M99.7433 22.5559L100.293 23H101H178V138H2V2H74.2932L99.7433 22.5559Z" stroke="black" stroke-width="4" />
      <line x1="72" y1="70.6901" x2="108" y2="70.6901" stroke="black" stroke-width="4" stroke-linecap="round" />
    </g>
    <g transform="matrix(.1 0 0 .1 1020 0)" fill="none">
      <rect x="2" y="2" width="176" height="136" stroke="black" stroke-width="4" />
      <rect x="40" y="20" width="100" height="100" stroke="black" stroke-width="4" />
      <path
        d="M71.664 92C71.2373 92 70.8747 91.872 70.576 91.616C70.32 91.3173 70.192 90.9546 70.192 90.528V54.688L59.568 62.88C59.2267 63.136 58.864 63.2426 58.48 63.2C58.096 63.1573 57.776 62.9653 57.52 62.624L55.856 60.512C55.6 60.128 55.4933 59.744 55.536 59.36C55.6213 58.976 55.8347 58.656 56.176 58.4L70.128 47.648C70.4267 47.4346 70.704 47.3066 70.96 47.264C71.216 47.2213 71.4933 47.2 71.792 47.2H75.056C75.4827 47.2 75.824 47.3493 76.08 47.648C76.336 47.904 76.464 48.2453 76.464 48.672V90.528C76.464 90.9546 76.336 91.3173 76.08 91.616C75.824 91.872 75.4827 92 75.056 92H71.664Z"
        fill="black" />
      <path
        d="M87.263 69.6C86.8363 69.6 86.4737 69.472 86.175 69.216C85.919 68.9173 85.791 68.5546 85.791 68.128V63.648C85.791 63.2213 85.919 62.88 86.175 62.624C86.4737 62.3253 86.8363 62.176 87.263 62.176H91.807C92.2763 62.176 92.639 62.3253 92.895 62.624C93.1937 62.88 93.343 63.2213 93.343 63.648V68.128C93.343 68.5546 93.1937 68.9173 92.895 69.216C92.639 69.472 92.2763 69.6 91.807 69.6H87.263ZM87.263 92C86.8363 92 86.4737 91.872 86.175 91.616C85.919 91.3173 85.791 90.9546 85.791 90.528V86.048C85.791 85.6213 85.919 85.28 86.175 85.024C86.4737 84.7253 86.8363 84.576 87.263 84.576H91.807C92.2763 84.576 92.639 84.7253 92.895 85.024C93.1937 85.28 93.343 85.6213 93.343 86.048V90.528C93.343 90.9546 93.1937 91.3173 92.895 91.616C92.639 91.872 92.2763 92 91.807 92H87.263Z"
        fill="black" />
      <path
        d="M115.414 92C114.987 92 114.625 91.872 114.326 91.616C114.07 91.3173 113.942 90.9546 113.942 90.528V54.688L103.318 62.88C102.977 63.136 102.614 63.2426 102.23 63.2C101.846 63.1573 101.526 62.9653 101.27 62.624L99.606 60.512C99.35 60.128 99.2433 59.744 99.286 59.36C99.3713 58.976 99.5847 58.656 99.926 58.4L113.878 47.648C114.177 47.4346 114.454 47.3066 114.71 47.264C114.966 47.2213 115.243 47.2 115.542 47.2H118.806C119.233 47.2 119.574 47.3493 119.83 47.648C120.086 47.904 120.214 48.2453 120.214 48.672V90.528C120.214 90.9546 120.086 91.3173 119.83 91.616C119.574 91.872 119.233 92 118.806 92H115.414Z"
        fill="black" />
    </g>
    <g transform="matrix(.1 0 0 .1 1040 0)" fill="none">
      <rect x="2" y="2" width="176" height="136" stroke="black" stroke-width="4" />
      <path
        d="M16.5858 68.5858C15.8047 69.3668 15.8047 70.6332 16.5858 71.4142L29.3137 84.1421C30.0948 84.9232 31.3611 84.9232 32.1421 84.1421C32.9232 83.3611 32.9232 82.0948 32.1421 81.3137L20.8284 70L32.1421 58.6863C32.9232 57.9052 32.9232 56.6389 32.1421 55.8579C31.3611 55.0768 30.0948 55.0768 29.3137 55.8579L16.5858 68.5858ZM89 68L18 68V72L89 72V68Z"
        fill="black" />
      <path
        d="M163.414 71.4142C164.195 70.6332 164.195 69.3668 163.414 68.5858L150.686 55.8579C149.905 55.0768 148.639 55.0768 147.858 55.8579C147.077 56.6389 147.077 57.9052 147.858 58.6863L159.172 70L147.858 81.3137C147.077 82.0948 147.077 83.3611 147.858 84.1421C148.639 84.9232 149.905 84.9232 150.686 84.1421L163.414 71.4142ZM91 72L162 72V68L91 68V72Z"
        fill="black" />
      <path
        d="M91.4142 16.5858C90.6332 15.8047 89.3668 15.8047 88.5858 16.5858L75.8579 29.3137C75.0768 30.0948 75.0768 31.3611 75.8579 32.1421C76.6389 32.9232 77.9052 32.9232 78.6863 32.1421L90 20.8284L101.314 32.1421C102.095 32.9232 103.361 32.9232 104.142 32.1421C104.923 31.3611 104.923 30.0948 104.142 29.3137L91.4142 16.5858ZM92 69L92 18H88L88 69H92Z"
        fill="black" />
      <path
        d="M88.5858 123.414C89.3668 124.195 90.6332 124.195 91.4142 123.414L104.142 110.686C104.923 109.905 104.923 108.639 104.142 107.858C103.361 107.077 102.095 107.077 101.314 107.858L90 119.172L78.6863 107.858C77.9052 107.077 76.6389 107.077 75.8579 107.858C75.0768 108.639 75.0768 109.905 75.8579 110.686L88.5858 123.414ZM88 71V122H92V71H88Z"
        fill="black" />
    </g>
    <g transform="matrix(.1 0 0 .1 1060 0)" fill="none">
      <rect x="2" y="2" width="176" height="136" stroke="black" stroke-width="4" />
      <line x1="4" y1="27" x2="176" y2="27" stroke="black" stroke-width="4" />
      <line x1="4" y1="113" x2="176" y2="113" stroke="black" stroke-width="4" />
      <path
        d="M16.5858 68.5858C15.8047 69.3668 15.8047 70.6332 16.5858 71.4142L29.3137 84.1421C30.0948 84.9232 31.3611 84.9232 32.1421 84.1421C32.9232 83.3611 32.9232 82.0948 32.1421 81.3137L20.8284 70L32.1421 58.6863C32.9232 57.9052 32.9232 56.6389 32.1421 55.8579C31.3611 55.0768 30.0948 55.0768 29.3137 55.8579L16.5858 68.5858ZM90 68L18 68V72L90 72V68Z"
        fill="black" />
      <path
        d="M163.414 71.4142C164.195 70.6332 164.195 69.3668 163.414 68.5858L150.686 55.8579C149.905 55.0768 148.639 55.0768 147.858 55.8579C147.077 56.6389 147.077 57.9052 147.858 58.6863L159.172 70L147.858 81.3137C147.077 82.0948 147.077 83.3611 147.858 84.1421C148.639 84.9232 149.905 84.9232 150.686 84.1421L163.414 71.4142ZM90 72L162 72V68L90 68V72Z"
        fill="black" />
    </g>
    <g transform="matrix(.1 0 0 .1 1080 0)" fill="none">
      <rect x="2" y="2" width="176" height="136" stroke="black" stroke-width="4" />
      <line x1="32" x2="32" y2="140" stroke="black" stroke-width="4" />
      <line x1="152" x2="152" y2="140" stroke="black" stroke-width="4" />
      <path
        d="M88.5858 123.414C89.3668 124.195 90.6332 124.195 91.4142 123.414L104.142 110.686C104.923 109.905 104.923 108.639 104.142 107.858C103.361 107.077 102.095 107.077 101.314 107.858L90 119.172L78.6863 107.858C77.9052 107.077 76.6389 107.077 75.8579 107.858C75.0768 108.639 75.0768 109.905 75.8579 110.686L88.5858 123.414ZM88 68V122H92V68H88Z"
        fill="black" />
      <path
        d="M91.4142 16.5858C90.6332 15.8047 89.3668 15.8047 88.5858 16.5858L75.8579 29.3137C75.0768 30.0948 75.0768 31.3611 75.8579 32.1421C76.6389 32.9232 77.9052 32.9232 78.6863 32.1421L90 20.8284L101.314 32.1421C102.095 32.9232 103.361 32.9232 104.142 32.1421C104.923 31.3611 104.923 30.0948 104.142 29.3137L91.4142 16.5858ZM92 70V18H88V70H92Z"
        fill="black" />
    </g>
    <g transform="matrix(.1 0 0 .1 1100 0)" fill="none">
      <rect x="2" y="2" width="176" height="136" stroke="black" stroke-width="4" />
      <rect x="10" y="10" width="160" height="120" stroke="black" stroke-width="4" />
    </g>
    <g transform="matrix(.12 0 0 .12 1120 .4)" fill="none">
      <path
        d="M7.99852 51C3.58024 51.0008 -0.000817216 54.5832 0 59.0015C0.000817216 63.4198 3.5832 67.0008 8.00148 67L7.99852 51ZM119.658 64.6362C122.781 61.5114 122.78 56.4461 119.656 53.3225L68.7345 2.42022C65.6097 -0.703395 60.5444 -0.702458 57.4208 2.42231C54.2972 5.54709 54.2981 10.6124 57.4229 13.736L102.686 58.9825L57.4396 104.246C54.316 107.37 54.317 112.436 57.4417 115.559C60.5665 118.683 65.6318 118.682 68.7554 115.557L119.658 64.6362ZM8.00148 67L114.001 66.9804L113.998 50.9804L7.99852 51L8.00148 67Z"
        fill="black" />
    </g>
    <g transform="matrix(.12 0 0 .12 1140 .4)" fill="none">
      <path
        d="M114.001 51C118.42 51.0008 122.001 54.5832 122 59.0015C121.999 63.4198 118.417 67.0008 113.998 67L114.001 51ZM2.34211 64.6362C-0.781502 61.5114 -0.780565 56.4461 2.34421 53.3225L53.2653 2.42022C56.3901 -0.703395 61.4554 -0.702458 64.579 2.42231C67.7026 5.54709 67.7017 10.6124 64.5769 13.736L19.3137 58.9825L64.5602 104.246C67.6838 107.37 67.6829 112.436 64.5581 115.559C61.4333 118.683 56.368 118.682 53.2444 115.557L2.34211 64.6362ZM113.998 67L7.99854 66.9804L8.00149 50.9804L114.001 51L113.998 67Z"
        fill="black" />
    </g>
  </g>

  <view id="folder" viewBox="1000 0 18 14" preserveAspectRatio="meet" />
  <view id="square" viewBox="1020 0 18 14" preserveAspectRatio="meet" />
  <view id="fill" viewBox="1040 0 18 14" preserveAspectRatio="meet" />
  <view id="horizontal" viewBox="1060 0 18 14" preserveAspectRatio="meet" />
  <view id="vertical" viewBox="1080 0 18 14" preserveAspectRatio="meet" />
  <view id="default" viewBox="1100 0 18 14" preserveAspectRatio="meet" />
  <view id="right" viewBox="1120 0 15 15" preserveAspectRatio="none" />
  <view id="left" viewBox="1140 0 15 15" preserveAspectRatio="none" />
</svg>